<svg id="visual" viewBox="0 0 900 600" width="900" height="600" xmlns="http://www.w3.org/2000/svg" xmlns:xlink="http://www.w3.org/1999/xlink" version="1.1"><rect x="0" y="0" width="900" height="600" fill="#68bbff"></rect><path d="M0 388L129 393L257 395L386 378L514 385L643 356L771 390L900 385L900 601L771 601L643 601L514 601L386 601L257 601L129 601L0 601Z" fill="#0d64e6"></path><path d="M0 423L129 393L257 421L386 406L514 441L643 415L771 416L900 412L900 601L771 601L643 601L514 601L386 601L257 601L129 601L0 601Z" fill="#0050ae"></path><path d="M0 481L129 477L257 459L386 474L514 443L643 447L771 483L900 450L900 601L771 601L643 601L514 601L386 601L257 601L129 601L0 601Z" fill="#003b78"></path><path d="M0 502L129 524L257 509L386 521L514 499L643 496L771 493L900 521L900 601L771 601L643 601L514 601L386 601L257 601L129 601L0 601Z" fill="#0a2645"></path><path d="M0 567L129 562L257 563L386 556L514 540L643 543L771 554L900 537L900 601L771 601L643 601L514 601L386 601L257 601L129 601L0 601Z" fill="#0a0f16"></path></svg>